<svg xmlns="http://www.w3.org/2000/svg" viewBox="0 0 68.7 8.33"><defs><style>.cls-1{fill:#fff;}</style></defs><title>Asset 2</title><g id="Layer_2" data-name="Layer 2"><g id="Layer_1-2" data-name="Layer 1"><path class="cls-1" d="M3.12,10.17c-2,0-3-.68-3-2V7.34H2.78v.81a.18.18,0,0,0,.3.12.16.16,0,0,0,0-.12V7.89A.74.74,0,0,0,3,7.43a1.54,1.54,0,0,0-.36-.36L2,6.7a8.52,8.52,0,0,1-1-.62,2.58,2.58,0,0,1-.64-.79A2.56,2.56,0,0,1,.15,4.05V3.91A1.79,1.79,0,0,1,.84,2.33a3.48,3.48,0,0,1,2-.49,4.37,4.37,0,0,1,1.6.25,2,2,0,0,1,.94.71,2,2,0,0,1,.31,1.08v.58H3.18V3.85a.17.17,0,0,0-.05-.12.16.16,0,0,0-.12,0,.15.15,0,0,0-.13.05.17.17,0,0,0,0,.12V4a.48.48,0,0,0,.11.3,1.13,1.13,0,0,0,.29.23,4.94,4.94,0,0,0,.49.26,7.89,7.89,0,0,1,1,.62,2.67,2.67,0,0,1,.75.91,3.15,3.15,0,0,1,.32,1.5V8A1.9,1.9,0,0,1,4.54,10,4.37,4.37,0,0,1,3.12,10.17Z" transform="translate(-0.13 -1.84)"/><path class="cls-1" d="M8.48,10a1.59,1.59,0,0,1-1.25-.47A2,2,0,0,1,6.8,8.13V5.6H6.28V4L7,3.52l.67-1.29h2V3.74h.58V5.6h-.6V7.86A.24.24,0,0,0,9.73,8a.17.17,0,0,0,.14.06h.4V10Z" transform="translate(-0.13 -1.84)"/><path class="cls-1" d="M13.46,10.15a3.32,3.32,0,0,1-2.07-.54,1.88,1.88,0,0,1-.7-1.6V3.74h2.59V8q0,.24.18.24c.11,0,.16-.08.16-.24V3.74h2.6V8.07a1.82,1.82,0,0,1-.7,1.56A3.38,3.38,0,0,1,13.46,10.15Z" transform="translate(-0.13 -1.84)"/><path class="cls-1" d="M18.23,10.17a1.3,1.3,0,0,1-1.16-.6,3.37,3.37,0,0,1-.39-1.79V5.94a3.25,3.25,0,0,1,.41-1.79,1.35,1.35,0,0,1,1.2-.6A1.42,1.42,0,0,1,19.48,4l-.08-.43V2h2.89v8H19.82l-.26-.56A1.25,1.25,0,0,1,18.23,10.17Zm1.25-1.89a.15.15,0,0,0,.13-.06.3.3,0,0,0,0-.18V5.49a.27.27,0,0,0-.17-.06c-.1,0-.16.16-.16.49V7.8a1.56,1.56,0,0,0,0,.36Q19.41,8.28,19.48,8.28Z" transform="translate(-0.13 -1.84)"/><path class="cls-1" d="M25.59,10.15a3.21,3.21,0,0,1-2.1-.6,2.2,2.2,0,0,1-.71-1.77V5.94a2.17,2.17,0,0,1,.71-1.77,3.21,3.21,0,0,1,2.1-.6,3.34,3.34,0,0,1,2.11.57,2.08,2.08,0,0,1,.71,1.7c0,.2,0,.47,0,.81s0,.63-.05.85h-3V6.39h.45V5.24a.15.15,0,0,0-.17-.17.15.15,0,0,0-.17.17V8.68a.15.15,0,0,0,.17.17.15.15,0,0,0,.17-.17V7.84h2.51v.77a1.86,1.86,0,0,1-.88,1.15A3.59,3.59,0,0,1,25.59,10.15Z" transform="translate(-0.13 -1.84)"/><path class="cls-1" d="M28.9,3.74h2.36l.3.47a1.21,1.21,0,0,1,.51-.46,1.8,1.8,0,0,1,.84-.18,1.35,1.35,0,0,1,1.21.56,3.1,3.1,0,0,1,.37,1.71V10H31.84V5.88a1.9,1.9,0,0,0,0-.3.34.34,0,0,0-.05-.13.16.16,0,0,0-.1,0,.12.12,0,0,0-.1,0,.2.2,0,0,0-.05.14,2.16,2.16,0,0,0,0,.31V10H28.9Z" transform="translate(-0.13 -1.84)"/><path class="cls-1" d="M37.15,10a1.56,1.56,0,0,1-1.24-.47,2,2,0,0,1-.43-1.38V5.6H35V4l.69-.45.68-1.29h2V3.74H39V5.6h-.6V7.86a.3.3,0,0,0,0,.18.2.2,0,0,0,.15.06h.39V10Z" transform="translate(-0.13 -1.84)"/><path class="cls-1" d="M42,10.17A3.47,3.47,0,0,1,40,9.71a1.46,1.46,0,0,1-.59-1.19V7.9L41.75,8v.62a.2.2,0,0,0,0,.13.17.17,0,0,0,.13,0,.17.17,0,0,0,.12,0,.17.17,0,0,0,0-.13V8.11A.34.34,0,0,0,42,7.86a.91.91,0,0,0-.27-.18l-.46-.17a7.36,7.36,0,0,1-.94-.4,2,2,0,0,1-.65-.62,2,2,0,0,1-.28-1.1V5.24a1.44,1.44,0,0,1,1.09-1.5,4.67,4.67,0,0,1,1.35-.17,3.47,3.47,0,0,1,1.9.42,1.41,1.41,0,0,1,.64,1.23v.53L42,5.71V5.12A.13.13,0,0,0,42,5a.17.17,0,0,0-.12,0,.17.17,0,0,0-.13,0,.11.11,0,0,0,0,.08v.16a.56.56,0,0,0,.13.39.89.89,0,0,0,.32.25,5.81,5.81,0,0,0,.54.22,5,5,0,0,1,.88.38,1.56,1.56,0,0,1,.6.62,2.22,2.22,0,0,1,.25,1.14v.38a1.24,1.24,0,0,1-.3.85,1.83,1.83,0,0,1-.86.51A4,4,0,0,1,42,10.17Z" transform="translate(-0.13 -1.84)"/><path class="cls-1" d="M47.56,2h4.6V4H50.52V5.44h1.32v1.9H50.52V10h-3Z" transform="translate(-0.13 -1.84)"/><path class="cls-1" d="M55.46,10.15a3.29,3.29,0,0,1-2.1-.57,2.08,2.08,0,0,1-.72-1.72v-2a2.08,2.08,0,0,1,.72-1.72,4.09,4.09,0,0,1,4.2,0,2.08,2.08,0,0,1,.72,1.72v2a2.08,2.08,0,0,1-.72,1.72A3.29,3.29,0,0,1,55.46,10.15Zm0-1.89c.11,0,.17-.08.17-.24V5.71c0-.16-.06-.24-.17-.24s-.17.08-.17.24V8C55.29,8.18,55.34,8.26,55.46,8.26Z" transform="translate(-0.13 -1.84)"/><path class="cls-1" d="M58.78,3.74h2.37l.29.47A1.3,1.3,0,0,1,62,3.75a1.8,1.8,0,0,1,.84-.18,1.32,1.32,0,0,1,1.2.56,3.09,3.09,0,0,1,.38,1.71V10H61.73V5.88a1.9,1.9,0,0,0,0-.3.31.31,0,0,0-.06-.13s0,0-.09,0a.14.14,0,0,0-.11,0,.38.38,0,0,0-.05.14c0,.07,0,.17,0,.31V10H58.78Z" transform="translate(-0.13 -1.84)"/><path class="cls-1" d="M67,10a1.59,1.59,0,0,1-1.25-.47,2,2,0,0,1-.43-1.38V5.6h-.52V4l.7-.45.67-1.29h2V3.74h.58V5.6h-.59V7.86a.24.24,0,0,0,.05.18.17.17,0,0,0,.14.06h.4V10Z" transform="translate(-0.13 -1.84)"/></g></g></svg>